<svg width="18" height="18" viewBox="0 0 18 18" fill="none" xmlns="http://www.w3.org/2000/svg">
<path d="M2 8C1.58333 8 1.22933 7.854 0.938 7.562C0.646 7.27067 0.5 6.91667 0.5 6.5V2C0.5 1.58333 0.646 1.22933 0.938 0.938C1.22933 0.646 1.58333 0.5 2 0.5H6.5C6.91667 0.5 7.27067 0.646 7.562 0.938C7.854 1.22933 8 1.58333 8 2V6.5C8 6.91667 7.854 7.27067 7.562 7.562C7.27067 7.854 6.91667 8 6.5 8H2ZM2 17.5C1.58333 17.5 1.22933 17.354 0.938 17.062C0.646 16.7707 0.5 16.4167 0.5 16V11.5C0.5 11.0833 0.646 10.7293 0.938 10.438C1.22933 10.146 1.58333 10 2 10H6.5C6.91667 10 7.27067 10.146 7.562 10.438C7.854 10.7293 8 11.0833 8 11.5V16C8 16.4167 7.854 16.7707 7.562 17.062C7.27067 17.354 6.91667 17.5 6.5 17.5H2ZM11.5 8C11.0833 8 10.7293 7.854 10.438 7.562C10.146 7.27067 10 6.91667 10 6.5V2C10 1.58333 10.146 1.22933 10.438 0.938C10.7293 0.646 11.0833 0.5 11.5 0.5H16C16.4167 0.5 16.7707 0.646 17.062 0.938C17.354 1.22933 17.5 1.58333 17.5 2V6.5C17.5 6.91667 17.354 7.27067 17.062 7.562C16.7707 7.854 16.4167 8 16 8H11.5ZM11.5 17.5C11.0833 17.5 10.7293 17.354 10.438 17.062C10.146 16.7707 10 16.4167 10 16V11.5C10 11.0833 10.146 10.7293 10.438 10.438C10.7293 10.146 11.0833 10 11.5 10H16C16.4167 10 16.7707 10.146 17.062 10.438C17.354 10.7293 17.5 11.0833 17.5 11.5V16C17.5 16.4167 17.354 16.7707 17.062 17.062C16.7707 17.354 16.4167 17.5 16 17.5H11.5ZM2 6.5H6.5V2H2V6.5ZM11.5 6.5H16V2H11.5V6.5ZM11.5 16H16V11.5H11.5V16ZM2 16H6.5V11.5H2V16Z" fill="#199EE1"/>
</svg>
