<svg width="16" height="20" viewBox="0 0 16 20" fill="none" xmlns="http://www.w3.org/2000/svg">
<path d="M5 9.75C4.78333 9.75 4.60433 9.679 4.463 9.537C4.321 9.39567 4.25 9.21667 4.25 9C4.25 8.78333 4.321 8.604 4.463 8.462C4.60433 8.32067 4.78333 8.25 5 8.25H11C11.2167 8.25 11.396 8.32067 11.538 8.462C11.6793 8.604 11.75 8.78333 11.75 9C11.75 9.21667 11.6793 9.39567 11.538 9.537C11.396 9.679 11.2167 9.75 11 9.75H5ZM5 5.75C4.78333 5.75 4.60433 5.679 4.463 5.537C4.321 5.39567 4.25 5.21667 4.25 5C4.25 4.78333 4.321 4.60433 4.463 4.463C4.60433 4.321 4.78333 4.25 5 4.25H11C11.2167 4.25 11.396 4.321 11.538 4.463C11.6793 4.60433 11.75 4.78333 11.75 5C11.75 5.21667 11.6793 5.39567 11.538 5.537C11.396 5.679 11.2167 5.75 11 5.75H5ZM2 12.25H9.5C9.95 12.25 10.3627 12.3457 10.738 12.537C11.1127 12.729 11.4333 13 11.7 13.35L14 16.35V2.3C14 2.21667 13.971 2.14567 13.913 2.087C13.8543 2.029 13.7833 2 13.7 2H2.3C2.21667 2 2.146 2.029 2.088 2.087C2.02933 2.14567 2 2.21667 2 2.3V12.25ZM2.3 18H13.375L10.525 14.275C10.3917 14.1083 10.2373 13.979 10.062 13.887C9.88733 13.7957 9.7 13.75 9.5 13.75H2V17.7C2 17.7833 2.02933 17.8543 2.088 17.913C2.146 17.971 2.21667 18 2.3 18ZM13.7 19.5H2.3C1.8 19.5 1.375 19.325 1.025 18.975C0.675 18.625 0.5 18.2 0.5 17.7V2.3C0.5 1.8 0.675 1.375 1.025 1.025C1.375 0.675 1.8 0.5 2.3 0.5H13.7C14.2 0.5 14.625 0.675 14.975 1.025C15.325 1.375 15.5 1.8 15.5 2.3V17.7C15.5 18.2 15.325 18.625 14.975 18.975C14.625 19.325 14.2 19.5 13.7 19.5Z" fill="white"/>
</svg>
