<svg width="18" height="18" viewBox="0 0 18 18" fill="none" xmlns="http://www.w3.org/2000/svg">
<path d="M12.6251 12.975C12.4751 12.8083 12.4001 12.625 12.4001 12.425C12.4001 12.225 12.4751 12.05 12.6251 11.9L14.5251 10H6.8751C6.65843 10 6.47943 9.929 6.3381 9.787C6.1961 9.64567 6.1251 9.46667 6.1251 9.25C6.1251 9.03333 6.1961 8.854 6.3381 8.712C6.47943 8.57067 6.65843 8.5 6.8751 8.5H14.5251L12.6251 6.575C12.4751 6.425 12.4001 6.25 12.4001 6.05C12.4001 5.85 12.4751 5.675 12.6251 5.525C12.7751 5.375 12.9501 5.3 13.1501 5.3C13.3501 5.3 13.5168 5.36667 13.6501 5.5L16.7751 8.625C16.8584 8.70833 16.9211 8.804 16.9631 8.912C17.0044 9.02067 17.0251 9.13333 17.0251 9.25C17.0251 9.36667 17.0044 9.479 16.9631 9.587C16.9211 9.69567 16.8584 9.79167 16.7751 9.875L13.6501 13C13.5001 13.1667 13.3294 13.2417 13.1381 13.225C12.9461 13.2083 12.7751 13.125 12.6251 12.975ZM2.4001 18C1.9001 18 1.4751 17.825 1.1251 17.475C0.775098 17.125 0.600098 16.7 0.600098 16.2V2.3C0.600098 1.8 0.775098 1.375 1.1251 1.025C1.4751 0.675 1.9001 0.5 2.4001 0.5H8.3751C8.5751 0.5 8.7501 0.570667 8.9001 0.712C9.0501 0.854 9.1251 1.03333 9.1251 1.25C9.1251 1.46667 9.0501 1.64567 8.9001 1.787C8.7501 1.929 8.5751 2 8.3751 2H2.4001C2.33343 2 2.26676 2.03333 2.2001 2.1C2.13343 2.16667 2.1001 2.23333 2.1001 2.3V16.2C2.1001 16.2667 2.13343 16.3333 2.2001 16.4C2.26676 16.4667 2.33343 16.5 2.4001 16.5H8.3751C8.5751 16.5 8.7501 16.5707 8.9001 16.712C9.0501 16.854 9.1251 17.0333 9.1251 17.25C9.1251 17.4667 9.0501 17.646 8.9001 17.788C8.7501 17.9293 8.5751 18 8.3751 18H2.4001Z" fill="white"/>
</svg>
